<?xml version="1.0" encoding="utf-8"?>
<!-- Generator: Adobe Illustrator 26.3.1, SVG Export Plug-In . SVG Version: 6.00 Build 0)  -->
<svg version="1.1" id="Layer_1" xmlns="http://www.w3.org/2000/svg" xmlns:xlink="http://www.w3.org/1999/xlink" x="0px" y="0px"
	 width="2048px" height="2048px" viewBox="0 0 2048 2048" style="enable-background:new 0 0 2048 2048;" xml:space="preserve">
<style type="text/css">
	.st0{fill:#FCFCFC;}
</style>
<path class="st0" d="M1523,1440c0,8.667-3.333,16.333-10,23l-50,50c-6.667,6.667-14.333,10-23,10s-16.333-3.333-23-10l-393-393
	l-393,393c-6.667,6.667-14.333,10-23,10s-16.333-3.333-23-10l-50-50c-6.667-6.667-10-14.333-10-23s3.333-16.333,10-23l466-466
	c6.667-6.667,14.333-10,23-10c8.667,0,16.333,3.333,23,10l466,466C1519.667,1423.667,1523,1431.333,1523,1440z M1523,1056
	c0,8.667-3.333,16.333-10,23l-50,50c-6.667,6.667-14.333,10-23,10s-16.333-3.333-23-10l-393-393l-393,393
	c-6.667,6.667-14.333,10-23,10s-16.333-3.333-23-10l-50-50c-6.667-6.667-10-14.333-10-23s3.333-16.333,10-23l466-466
	c6.667-6.667,14.333-10,23-10c8.667,0,16.333,3.333,23,10l466,466C1519.667,1039.667,1523,1047.333,1523,1056z"/>
</svg>
