<?xml version="1.0" encoding="utf-8"?>
<!-- Generator: Adobe Illustrator 27.2.0, SVG Export Plug-In . SVG Version: 6.00 Build 0)  -->
<svg version="1.1" id="Layer_1" xmlns="http://www.w3.org/2000/svg" xmlns:xlink="http://www.w3.org/1999/xlink" x="0px" y="0px"
	 width="464.5px" height="463px" viewBox="0 0 464.5 463" style="enable-background:new 0 0 464.5 463;" xml:space="preserve">
<style type="text/css">
	.st0{fill:url(#SVGID_1_);}
	.st1{fill:url(#SVGID_00000146498222985001306970000016898818662855008954_);}
</style>
<linearGradient id="SVGID_1_" gradientUnits="userSpaceOnUse" x1="-658.2803" y1="736.023" x2="-642.4573" y2="720.147" gradientTransform="matrix(12.5 0 0 -12.5 8303 9261)">
	<stop  offset="0" style="stop-color:#387EB8"/>
	<stop  offset="1" style="stop-color:#366994"/>
</linearGradient>
<path class="st0" d="M235.562,25c-101.55,0-95.213,44.038-95.213,44.038l0.125,45.625h96.9v13.687H101.963
	c0,0-64.963-7.375-64.963,95.1c0,102.45,56.713,98.825,56.713,98.825h33.85v-47.55c0,0-1.825-56.713,55.813-56.713h96.1
	c0,0,54,0.875,54-52.188V78.087C333.475,78.087,341.675,25,235.562,25z M182.125,55.675c9.638,0,17.438,7.8,17.438,17.438
	s-7.8,17.438-17.438,17.438c-9.617,0.014-17.424-7.771-17.438-17.387c0-0.017,0-0.033,0-0.05
	C164.688,63.475,172.488,55.675,182.125,55.675z"/>
<linearGradient id="SVGID_00000055700001485784364520000010690438284658980740_" gradientUnits="userSpaceOnUse" x1="-648.5495" y1="725.916" x2="-631.5555" y2="709.6351" gradientTransform="matrix(12.5 0 0 -12.5 8303 9261)">
	<stop  offset="0" style="stop-color:#FFE052"/>
	<stop  offset="1" style="stop-color:#FFC331"/>
</linearGradient>
<path style="fill:url(#SVGID_00000055700001485784364520000010690438284658980740_);" d="M238.438,422.913
	c101.55,0,95.213-44.037,95.213-44.037l-0.125-45.625h-96.9v-13.688h135.4c0,0,64.975,7.375,64.975-95.087
	s-56.712-98.825-56.712-98.825h-33.85v47.537c0,0,1.825,56.712-55.812,56.712h-96.1c0,0-54-0.875-54,52.187v87.738
	C140.525,369.825,132.325,422.913,238.438,422.913z M291.875,392.238c-9.617,0.014-17.424-7.771-17.438-17.387
	c0-0.017,0-0.033,0-0.05c0-9.625,7.8-17.425,17.438-17.425c9.638,0,17.438,7.788,17.438,17.425
	C309.313,384.45,301.513,392.238,291.875,392.238z"/>
</svg>
